<?xml version="1.0" encoding="utf-8"?>
<!-- Generator: Adobe Illustrator 16.0.0, SVG Export Plug-In . SVG Version: 6.00 Build 0)  -->
<!DOCTYPE svg PUBLIC "-//W3C//DTD SVG 1.1//EN" "http://www.w3.org/Graphics/SVG/1.1/DTD/svg11.dtd">
<svg version="1.1" id="Layer_1" xmlns="http://www.w3.org/2000/svg" xmlns:xlink="http://www.w3.org/1999/xlink" x="0px" y="0px"
	 width="180px" height="180px" viewBox="0 0 180 180" enable-background="new 0 0 180 180" xml:space="preserve">
<g>
	<g>
		<g>
			<g>
				<defs>
					<rect id="SVGID_1_" x="15.379" y="25.138" width="149.241" height="129.723"/>
				</defs>
				<clipPath id="SVGID_2_">
					<use xlink:href="#SVGID_1_"  overflow="visible"/>
				</clipPath>
				<path clip-path="url(#SVGID_2_)" fill="#7E7E7E" d="M19.689,25.108c-2.152,0-3.921,1.761-3.921,3.922v94.004
					c0,2.153,1.769,3.924,3.921,3.924H96.07l26.634,26.237c2.555,2.544,6.669,0.788,6.669-2.743v-23.494h31.326
					c2.164,0,3.924-1.77,3.924-3.924V29.03c0-2.162-1.76-3.922-3.924-3.922H19.689L19.689,25.108z M23.6,32.939h133.186v86.172
					H125.45c-2.154,0-3.926,1.771-3.926,3.925v18.015l-21.142-20.758c-0.786-0.783-1.771-1.178-2.743-1.178H23.6V32.939L23.6,32.939
					z"/>
			</g>
		</g>
	</g>
</g>
</svg>
