<?xml version="1.0" encoding="utf-8"?>
<!-- Generator: Adobe Illustrator 16.0.0, SVG Export Plug-In . SVG Version: 6.00 Build 0)  -->
<!DOCTYPE svg PUBLIC "-//W3C//DTD SVG 1.1//EN" "http://www.w3.org/Graphics/SVG/1.1/DTD/svg11.dtd">
<svg version="1.1" id="Layer_1" xmlns="http://www.w3.org/2000/svg" xmlns:xlink="http://www.w3.org/1999/xlink" x="0px" y="0px"
	 width="180px" height="180px" viewBox="0 0 180 180" enable-background="new 0 0 180 180" xml:space="preserve">
<path fill="#FFFFFF" d="M144.656,34.859L94.328,68.5c-1.656-0.406-3.172-0.547-4.828-0.547c-12.133,0-22.063,9.789-22.063,22.07
	c0,1.641,0.141,3.164,0.555,4.82l-33.648,50.328l50.469-33.648c1.516,0.422,3.031,0.555,4.688,0.555
	c12.141,0,22.063-9.789,22.063-22.055c0-1.656-0.133-3.18-0.555-4.836L144.656,34.859z M89.5,101.047
	c-6.07,0-11.031-4.969-11.031-11.023c0-6.078,4.961-11.039,11.031-11.039c6.063,0,11.031,4.961,11.031,11.039
	C100.531,96.078,95.563,101.047,89.5,101.047z"/>
<path fill="#62B2B2" d="M125.414,54.609L92.641,76.203c-1.078-0.266-2.055-0.352-3.133-0.352c-7.906,0-14.367,6.281-14.367,14.172
	c0,1.047,0.094,2.031,0.359,3.078l-21.891,32.336l32.836-21.602c0.984,0.258,1.984,0.352,3.063,0.352
	c7.898,0,14.352-6.273,14.352-14.164c0-1.07-0.078-2.047-0.352-3.102L125.414,54.609z M89.508,97.102
	c-3.961,0-7.195-3.188-7.195-7.078c0-3.906,3.234-7.086,7.195-7.086c3.945,0,7.188,3.18,7.188,7.086
	C96.695,93.914,93.453,97.102,89.508,97.102z"/>
<path fill="#FFFFFF" d="M105.516,90.008c0,8.844-7.164,16.023-16,16.023c-8.859,0-16.023-7.18-16.023-16.023S80.656,74,89.516,74
	C98.352,74,105.516,81.164,105.516,90.008z"/>
<g>
	<path fill="none" d="M144.633,23.852H34.375c-6.086,0-11.031,5.008-11.031,11.039v110.242c0,6.102,5,11.055,11.031,11.055h110.258
		c6.086,0,11.039-5.008,11.039-11.055V34.891C155.672,28.805,150.664,23.852,144.633,23.852z"/>
	<path fill="#FFFFFF" d="M153.063,13.75H25.969c-7.023,0-12.727,5.75-12.727,12.711v127.086c0,7.063,5.766,12.766,12.727,12.766
		h127.094c7.031,0,12.734-5.789,12.734-12.766V26.461C165.797,19.453,160.023,13.75,153.063,13.75z M155.672,145.133
		c0,6.047-4.953,11.055-11.039,11.055H34.375c-6.031,0-11.031-4.953-11.031-11.055V34.891c0-6.031,4.945-11.039,11.031-11.039
		h110.258c6.031,0,11.039,4.953,11.039,11.039V145.133z"/>
</g>
</svg>
