<?xml version="1.0" encoding="utf-8"?>
<!-- Generator: Adobe Illustrator 16.0.0, SVG Export Plug-In . SVG Version: 6.00 Build 0)  -->
<!DOCTYPE svg PUBLIC "-//W3C//DTD SVG 1.1//EN" "http://www.w3.org/Graphics/SVG/1.1/DTD/svg11.dtd">
<svg version="1.1" id="Layer_1" xmlns="http://www.w3.org/2000/svg" xmlns:xlink="http://www.w3.org/1999/xlink" x="0px" y="0px"
	 width="180px" height="180px" viewBox="0 0 180 180" enable-background="new 0 0 180 180" xml:space="preserve">
<path fill="#010101" d="M145.656,35.234L95.328,68.875c-1.656-0.406-3.172-0.547-4.828-0.547c-12.133,0-22.063,9.789-22.063,22.07
	c0,1.641,0.141,3.164,0.555,4.82l-33.648,50.328l50.469-33.648c1.516,0.422,3.031,0.555,4.688,0.555
	c12.141,0,22.063-9.789,22.063-22.055c0-1.656-0.133-3.18-0.555-4.836L145.656,35.234z M90.5,101.422
	c-6.07,0-11.031-4.969-11.031-11.023c0-6.078,4.961-11.039,11.031-11.039c6.063,0,11.031,4.961,11.031,11.039
	C101.531,96.453,96.563,101.422,90.5,101.422z"/>
<path fill="#62B2B2" d="M126.414,54.984L93.641,76.578c-1.078-0.266-2.055-0.352-3.133-0.352c-7.906,0-14.367,6.281-14.367,14.172
	c0,1.047,0.094,2.031,0.359,3.078l-21.891,32.336l32.836-21.602c0.984,0.258,1.984,0.352,3.063,0.352
	c7.898,0,14.352-6.273,14.352-14.164c0-1.07-0.078-2.047-0.352-3.102L126.414,54.984z M90.508,97.477
	c-3.961,0-7.195-3.188-7.195-7.078c0-3.906,3.234-7.086,7.195-7.086c3.945,0,7.188,3.18,7.188,7.086
	C97.695,94.289,94.453,97.477,90.508,97.477z"/>
<path fill="#010101" d="M106.516,90.383c0,8.844-7.164,16.023-16,16.023c-8.859,0-16.023-7.18-16.023-16.023
	s7.164-16.008,16.023-16.008C99.352,74.375,106.516,81.539,106.516,90.383z"/>
<g>
	<path fill="none" d="M145.633,24.227H35.375c-6.086,0-11.031,5.008-11.031,11.039v110.242c0,6.102,5,11.055,11.031,11.055h110.258
		c6.086,0,11.039-5.008,11.039-11.055V35.266C156.672,29.18,151.664,24.227,145.633,24.227z"/>
	<path fill="#010101" d="M154.063,14.125H26.969c-7.023,0-12.727,5.75-12.727,12.711v127.086c0,7.063,5.766,12.766,12.727,12.766
		h127.094c7.031,0,12.734-5.789,12.734-12.766V26.836C166.797,19.828,161.023,14.125,154.063,14.125z M156.672,145.508
		c0,6.047-4.953,11.055-11.039,11.055H35.375c-6.031,0-11.031-4.953-11.031-11.055V35.266c0-6.031,4.945-11.039,11.031-11.039
		h110.258c6.031,0,11.039,4.953,11.039,11.039V145.508z"/>
</g>
</svg>
